<mxfile>
    <diagram id="BD0IHnstjnZ9T5ysEcdk" name="Page-1">
        <mxGraphModel dx="1864" dy="881" grid="1" gridSize="10" guides="1" tooltips="1" connect="1" arrows="1" fold="1" page="1" pageScale="1" pageWidth="850" pageHeight="1100" background="#283618" math="0" shadow="0">
            <root>
                <mxCell id="0"/>
                <mxCell id="1" parent="0"/>
                <mxCell id="2" value="" style="rounded=1;whiteSpace=wrap;html=1;sketch=0;strokeColor=#DDA15E;fillColor=#BC6C25;fontColor=#FEFAE0;" parent="1" vertex="1">
                    <mxGeometry x="17.5" y="90" width="240" height="270" as="geometry"/>
                </mxCell>
                <mxCell id="57" value="" style="edgeStyle=orthogonalEdgeStyle;rounded=0;orthogonalLoop=1;jettySize=auto;html=1;" edge="1" parent="1" source="5" target="25">
                    <mxGeometry relative="1" as="geometry"/>
                </mxCell>
                <mxCell id="5" value="" style="rounded=1;whiteSpace=wrap;html=1;sketch=0;strokeColor=#DDA15E;fillColor=#BC6C25;fontColor=#FEFAE0;" parent="1" vertex="1">
                    <mxGeometry x="307.5" y="100" width="240" height="260" as="geometry"/>
                </mxCell>
                <mxCell id="25" value="&lt;h1&gt;User as Teacher&lt;/h1&gt;&lt;div&gt;has_many students&lt;/div&gt;&lt;div&gt;&lt;div&gt;through:taken_klasses&lt;/div&gt;&lt;div&gt;&lt;br&gt;&lt;/div&gt;&lt;/div&gt;&lt;div&gt;&lt;br&gt;&lt;/div&gt;&lt;div&gt;Attributes&lt;/div&gt;&lt;div&gt;&lt;br&gt;&lt;/div&gt;&lt;div&gt;username&lt;/div&gt;&lt;div&gt;first_name&lt;/div&gt;&lt;div&gt;last_name&lt;/div&gt;&lt;div&gt;password&lt;/div&gt;&lt;div&gt;&lt;br&gt;&lt;/div&gt;&lt;div&gt;bio&lt;/div&gt;&lt;div&gt;years_experience&lt;/div&gt;" style="text;html=1;strokeColor=none;fillColor=none;spacing=5;spacingTop=-20;whiteSpace=wrap;overflow=hidden;rounded=0;sketch=0;fontColor=#FEFAE0;align=center;" parent="1" vertex="1">
                    <mxGeometry x="20" y="100" width="215" height="230" as="geometry"/>
                </mxCell>
                <mxCell id="30" style="edgeStyle=orthogonalEdgeStyle;shape=link;rounded=1;sketch=0;orthogonalLoop=1;jettySize=auto;html=1;exitX=0.5;exitY=1;exitDx=0;exitDy=0;strokeColor=#DDA15E;fillColor=#BC6C25;fontColor=#FEFAE0;" parent="1" edge="1">
                    <mxGeometry relative="1" as="geometry">
                        <mxPoint x="392.5" y="1000" as="sourcePoint"/>
                        <mxPoint x="392.5" y="1000" as="targetPoint"/>
                    </mxGeometry>
                </mxCell>
                <mxCell id="31" value="" style="rounded=1;whiteSpace=wrap;html=1;sketch=0;strokeColor=#DDA15E;fillColor=#BC6C25;fontColor=#FEFAE0;" parent="1" vertex="1">
                    <mxGeometry x="470" y="650" width="245" height="250" as="geometry"/>
                </mxCell>
                <mxCell id="33" value="&lt;br&gt;&lt;br&gt;" style="rounded=1;whiteSpace=wrap;html=1;sketch=0;strokeColor=#DDA15E;fillColor=#BC6C25;fontColor=#FEFAE0;" parent="1" vertex="1">
                    <mxGeometry x="582.5" y="110" width="240" height="370" as="geometry"/>
                </mxCell>
                <mxCell id="34" value="&lt;h1&gt;User as Student&lt;/h1&gt;&lt;div&gt;has_many teachers&lt;/div&gt;&lt;div&gt;through:taken_courses&lt;/div&gt;&lt;div&gt;&lt;br&gt;&lt;/div&gt;&lt;div&gt;has_many reviews through&lt;/div&gt;&lt;div&gt;taken_courses&lt;/div&gt;&lt;div&gt;&lt;br&gt;&lt;/div&gt;&lt;div&gt;username&lt;/div&gt;&lt;div&gt;first_name&lt;/div&gt;&lt;div&gt;last_name&lt;/div&gt;&lt;div&gt;password&lt;/div&gt;&lt;div&gt;email&lt;/div&gt;&lt;div&gt;bio&lt;/div&gt;" style="text;html=1;strokeColor=none;fillColor=none;spacing=5;spacingTop=-20;whiteSpace=wrap;overflow=hidden;rounded=0;sketch=0;fontColor=#FEFAE0;align=center;" parent="1" vertex="1">
                    <mxGeometry x="612.5" y="150" width="180" height="350" as="geometry"/>
                </mxCell>
                <mxCell id="49" value="&lt;h1&gt;Review&lt;/h1&gt;&lt;div&gt;belongs to student&lt;/div&gt;&lt;div&gt;&lt;br&gt;&lt;/div&gt;&lt;div&gt;belongs to course&lt;/div&gt;&lt;div&gt;&lt;br&gt;&lt;/div&gt;&lt;div&gt;student_id&lt;/div&gt;&lt;div&gt;teacher_id&lt;/div&gt;&lt;div&gt;course_id&lt;/div&gt;&lt;div&gt;rating&lt;/div&gt;&lt;div&gt;content&lt;/div&gt;&lt;div&gt;&lt;br&gt;&lt;/div&gt;&lt;div style=&quot;text-align: left&quot;&gt;&lt;div style=&quot;text-align: center&quot;&gt;&lt;br&gt;&lt;/div&gt;&lt;div style=&quot;text-align: center&quot;&gt;&lt;br&gt;&lt;/div&gt;&lt;/div&gt;" style="text;html=1;strokeColor=none;fillColor=none;spacing=5;spacingTop=-20;whiteSpace=wrap;overflow=hidden;rounded=0;sketch=0;fontColor=#FEFAE0;align=center;" parent="1" vertex="1">
                    <mxGeometry x="470" y="670" width="220" height="230" as="geometry"/>
                </mxCell>
                <mxCell id="38" value="" style="edgeStyle=orthogonalEdgeStyle;rounded=0;orthogonalLoop=1;jettySize=auto;html=1;shape=link;" parent="1" source="34" target="49" edge="1">
                    <mxGeometry relative="1" as="geometry">
                        <mxPoint x="330.0666666666666" y="640" as="targetPoint"/>
                        <Array as="points"/>
                    </mxGeometry>
                </mxCell>
                <mxCell id="61" value="" style="edgeStyle=orthogonalEdgeStyle;shape=link;rounded=0;orthogonalLoop=1;jettySize=auto;html=1;" edge="1" parent="1" source="50" target="25">
                    <mxGeometry relative="1" as="geometry"/>
                </mxCell>
                <mxCell id="50" value="" style="rounded=1;whiteSpace=wrap;html=1;sketch=0;strokeColor=#DDA15E;fillColor=#BC6C25;fontColor=#FEFAE0;" parent="1" vertex="1">
                    <mxGeometry x="40" y="580" width="280" height="330" as="geometry"/>
                </mxCell>
                <mxCell id="8" value="&lt;h1&gt;&lt;span&gt;Course&lt;/span&gt;&lt;/h1&gt;&lt;h1&gt;&lt;span style=&quot;font-size: 12px ; font-weight: normal&quot;&gt;has_many students&lt;/span&gt;&lt;br&gt;&lt;/h1&gt;&lt;div&gt;&lt;span style=&quot;font-size: 12px ; font-weight: normal&quot;&gt;has_many reviews&lt;/span&gt;&lt;/div&gt;&lt;div&gt;belongs_to teacher&lt;/div&gt;&lt;div&gt;&lt;br&gt;&lt;/div&gt;&lt;div style=&quot;text-align: left&quot;&gt;&lt;div style=&quot;text-align: center&quot;&gt;name&lt;/div&gt;&lt;div style=&quot;text-align: center&quot;&gt;description&lt;/div&gt;&lt;div style=&quot;text-align: center&quot;&gt;level:integer&lt;/div&gt;&lt;div style=&quot;text-align: center&quot;&gt;duration:integer&lt;/div&gt;&lt;div style=&quot;text-align: center&quot;&gt;price&lt;/div&gt;&lt;div style=&quot;text-align: center&quot;&gt;datetime&lt;/div&gt;&lt;div style=&quot;text-align: center&quot;&gt;student_id&lt;/div&gt;&lt;div style=&quot;text-align: center&quot;&gt;teacher_id&lt;/div&gt;&lt;div style=&quot;text-align: center&quot;&gt;&lt;br&gt;&lt;/div&gt;&lt;div style=&quot;text-align: center&quot;&gt;&lt;br&gt;&lt;/div&gt;&lt;div style=&quot;text-align: center&quot;&gt;&lt;br&gt;&lt;/div&gt;&lt;/div&gt;" style="text;html=1;strokeColor=none;fillColor=none;spacing=5;spacingTop=-20;whiteSpace=wrap;overflow=hidden;rounded=0;sketch=0;fontColor=#FEFAE0;align=center;" parent="1" vertex="1">
                    <mxGeometry x="70" y="630" width="220" height="260" as="geometry"/>
                </mxCell>
                <mxCell id="51" style="edgeStyle=orthogonalEdgeStyle;rounded=0;orthogonalLoop=1;jettySize=auto;html=1;exitX=0.5;exitY=1;exitDx=0;exitDy=0;" parent="1" source="5" target="5" edge="1">
                    <mxGeometry relative="1" as="geometry"/>
                </mxCell>
                <mxCell id="52" value="&lt;h1&gt;StudentTeachers&lt;/h1&gt;&lt;div&gt;references:student&lt;/div&gt;&lt;div&gt;references:teacher&lt;/div&gt;&lt;div&gt;&lt;br&gt;&lt;/div&gt;&lt;div style=&quot;text-align: left&quot;&gt;&lt;div style=&quot;text-align: center&quot;&gt;&lt;br&gt;&lt;/div&gt;&lt;div style=&quot;text-align: center&quot;&gt;student_id&lt;/div&gt;&lt;div style=&quot;text-align: center&quot;&gt;teacher_id&lt;/div&gt;&lt;div style=&quot;text-align: center&quot;&gt;&lt;br&gt;&lt;/div&gt;&lt;div style=&quot;text-align: center&quot;&gt;&lt;br&gt;&lt;/div&gt;&lt;div style=&quot;text-align: center&quot;&gt;&lt;br&gt;&lt;/div&gt;&lt;/div&gt;" style="text;html=1;strokeColor=none;fillColor=none;spacing=5;spacingTop=-20;whiteSpace=wrap;overflow=hidden;rounded=0;sketch=0;fontColor=#FEFAE0;align=center;" parent="1" vertex="1">
                    <mxGeometry x="317.5" y="120" width="220" height="170" as="geometry"/>
                </mxCell>
                <mxCell id="53" style="edgeStyle=orthogonalEdgeStyle;rounded=0;orthogonalLoop=1;jettySize=auto;html=1;exitX=0.5;exitY=1;exitDx=0;exitDy=0;" parent="1" source="5" target="5" edge="1">
                    <mxGeometry relative="1" as="geometry"/>
                </mxCell>
                <mxCell id="58" value="" style="edgeStyle=orthogonalEdgeStyle;rounded=0;orthogonalLoop=1;jettySize=auto;html=1;" edge="1" parent="1" source="5" target="34">
                    <mxGeometry relative="1" as="geometry"/>
                </mxCell>
                <mxCell id="46" value="" style="endArrow=classic;html=1;shape=link;" parent="1" source="49" target="8" edge="1">
                    <mxGeometry width="50" height="50" relative="1" as="geometry">
                        <mxPoint x="465" y="600" as="sourcePoint"/>
                        <mxPoint x="530" y="570" as="targetPoint"/>
                    </mxGeometry>
                </mxCell>
                <mxCell id="59" value="" style="edgeStyle=orthogonalEdgeStyle;rounded=0;orthogonalLoop=1;jettySize=auto;html=1;shape=link;exitX=0.25;exitY=0;exitDx=0;exitDy=0;" edge="1" parent="1" source="31" target="25">
                    <mxGeometry relative="1" as="geometry">
                        <mxPoint x="350" y="410" as="targetPoint"/>
                        <Array as="points">
                            <mxPoint x="531" y="400"/>
                            <mxPoint x="210" y="400"/>
                        </Array>
                        <mxPoint x="502.5714285714289" y="520" as="sourcePoint"/>
                    </mxGeometry>
                </mxCell>
            </root>
        </mxGraphModel>
    </diagram>
</mxfile>